<svg width="16" height="16" viewBox="0 0 16 16" fill="none" xmlns="http://www.w3.org/2000/svg">
<path d="M14.4516 4.06909H1.54837C0.978271 4.06909 0.516113 4.51129 0.516113 5.05677V13.9458C0.516113 14.4913 0.978271 14.9335 1.54837 14.9335H14.4516C15.0217 14.9335 15.4839 14.4913 15.4839 13.9458V5.05677C15.4839 4.51129 15.0217 4.06909 14.4516 4.06909Z" stroke="black"/>
<path d="M6.45156 1.6001H9.54834C9.9759 1.6001 10.3225 1.93174 10.3225 2.34085V4.06928H5.67737V2.34085C5.67737 1.93174 6.024 1.6001 6.45156 1.6001Z" stroke="black"/>
<path d="M9.29028 9.00757H15.4838" stroke="black" stroke-linejoin="round"/>
<path d="M9.54831 9.00724C9.54831 9.99382 8.82377 10.7357 7.99993 10.7357C7.17608 10.7357 6.45154 9.99382 6.45154 9.00724C6.45154 8.02065 7.17608 7.27881 7.99993 7.27881C8.82377 7.27881 9.54831 8.02065 9.54831 9.00724Z" stroke="black"/>
<path d="M0.516113 9.00757H6.70966" stroke="black" stroke-linejoin="round"/>
</svg>
