<svg width="33" height="32" viewBox="0 0 33 32" fill="none" xmlns="http://www.w3.org/2000/svg">
<g clip-path="url(#clip0)">
<path fill-rule="evenodd" clip-rule="evenodd" d="M0.200012 0H2.20001V30H32.2V32H0.200012V0ZM20.2 7C20.2 6.73478 20.3054 6.48043 20.4929 6.29289C20.6804 6.10536 20.9348 6 21.2 6H29.2C29.4652 6 29.7196 6.10536 29.9071 6.29289C30.0947 6.48043 30.2 6.73478 30.2 7V15C30.2 15.2652 30.0947 15.5196 29.9071 15.7071C29.7196 15.8946 29.4652 16 29.2 16C28.9348 16 28.6804 15.8946 28.4929 15.7071C28.3054 15.5196 28.2 15.2652 28.2 15V9.8L20.974 18.634C20.8856 18.742 20.7755 18.8302 20.6508 18.8931C20.5262 18.956 20.3898 18.992 20.2504 18.999C20.111 19.006 19.9717 18.9837 19.8414 18.9336C19.7111 18.8834 19.5928 18.8066 19.494 18.708L14.32 13.534L7.00801 23.588C6.84806 23.7914 6.61549 23.9249 6.35918 23.9604C6.10287 23.9959 5.84278 23.9307 5.63356 23.7784C5.42434 23.6261 5.28228 23.3987 5.23723 23.1439C5.19219 22.8891 5.24767 22.6268 5.39201 22.412L13.392 11.412C13.4769 11.295 13.5862 11.1979 13.7123 11.1272C13.8384 11.0565 13.9783 11.014 14.1224 11.0026C14.2664 10.9912 14.4113 11.0111 14.5469 11.0611C14.6826 11.1111 14.8058 11.1898 14.908 11.292L20.126 16.512L27.09 8H21.2C20.9348 8 20.6804 7.89464 20.4929 7.70711C20.3054 7.51957 20.2 7.26522 20.2 7Z" fill="#66D4F1"/>
</g>
<defs>
<clipPath id="clip0">
<rect width="32" height="32" fill="white" transform="translate(0.200012)"/>
</clipPath>
</defs>
</svg>
