<svg width="24" height="24" viewBox="0 0 24 24" fill="none" xmlns="http://www.w3.org/2000/svg">
<rect width="24" height="24" rx="3" fill="#FFF1E6"/>
<rect width="24" height="24" rx="3" fill="#FFF1E6"/>
<rect width="24" height="24" rx="3" fill="#FFF1E6"/>
<path d="M6.27424 5V5.61328C6.23897 10.3158 5.6245 8.73262 8.88547 12C5.56513 15.272 6.27424 13.7421 6.27424 18.3867V19H17.7253V18.3867C17.7602 13.6854 18.3784 15.2595 15.1189 12C18.4372 8.73756 17.7253 10.2549 17.7253 5.61328V5H6.27424ZM7.5008 6.22655H16.4988C16.6663 9.6849 16.2841 9.09072 13.8109 11.564L13.3797 12L13.8109 12.436C16.5731 15.1672 16.4988 14.2242 16.4988 17.7734H7.5008C7.33281 14.3153 7.71776 14.9065 10.1887 12.4312L10.6199 12L10.1887 11.5688C7.42836 8.83487 7.5008 9.77612 7.5008 6.22655ZM8.74652 8.74675C9.80566 9.65204 11.2909 10.0533 11.6021 11.8467H12.1962C12.1713 10.2341 13.9862 9.64435 15.2483 8.74675C12.7467 9.01637 11.7264 9.16103 8.74652 8.74675ZM11.9758 13.8686C10.3422 13.8583 8.71982 14.6958 8.75132 16.4127H15.253C15.2542 14.737 13.6094 13.8789 11.9758 13.8686Z" fill="#FF6E01"/>
</svg>
