<svg width="16" height="14" viewBox="0 0 16 14" fill="none" xmlns="http://www.w3.org/2000/svg">
<path d="M6.13569 12.501C5.49194 12.9406 4.6132 13.3623 3.39364 13.4252C3.83543 12.4868 4.01398 11.8353 4.00581 11.3428C4.00037 11.0146 3.9128 10.7576 3.77587 10.5456C3.67103 10.3833 3.53551 10.2512 3.45041 10.1683C3.4362 10.1545 3.4234 10.142 3.41238 10.131L3.36527 10.0839L3.30748 10.0507C1.54849 9.04243 0.5 7.52741 0.5 5.89806C0.5 4.48664 1.28384 3.16552 2.63767 2.17868C3.99107 1.19215 5.88531 0.56665 8 0.56665C10.1147 0.56665 12.0089 1.19215 13.3623 2.17868C14.7162 3.16552 15.5 4.48664 15.5 5.89806C15.5 7.30947 14.7162 8.63059 13.3623 9.61743C12.0089 10.604 10.1147 11.2295 8 11.2295C7.76663 11.2295 7.57578 11.3518 7.47357 11.4229C7.35256 11.5071 7.22214 11.6193 7.09694 11.7286C7.0739 11.7487 7.05052 11.7692 7.02678 11.79C6.78024 12.0059 6.49444 12.2561 6.13569 12.501Z" stroke="black"/>
<circle cx="5.06666" cy="6.19996" r="0.8" fill="black"/>
<ellipse cx="7.73332" cy="6.19996" rx="0.8" ry="0.8" fill="black"/>
<ellipse cx="10.4" cy="6.19996" rx="0.8" ry="0.8" fill="black"/>
</svg>
