<svg width="16" height="16" viewBox="0 0 16 16" fill="none" xmlns="http://www.w3.org/2000/svg">
<path d="M8.00004 1.33325C4.32404 1.33325 1.33337 4.32392 1.33337 7.99992C1.33337 11.6759 4.32404 14.6666 8.00004 14.6666C11.676 14.6666 14.6667 11.6759 14.6667 7.99992C14.6667 4.32392 11.676 1.33325 8.00004 1.33325ZM8.00004 13.3333C5.05937 13.3333 2.66671 10.9406 2.66671 7.99992C2.66671 5.05925 5.05937 2.66659 8.00004 2.66659C10.9407 2.66659 13.3334 5.05925 13.3334 7.99992C13.3334 10.9406 10.9407 13.3333 8.00004 13.3333Z" fill="black"/>
<path d="M8.66671 4.66675H7.33337V8.27608L9.52871 10.4714L10.4714 9.52875L8.66671 7.72408V4.66675Z" fill="black"/>
</svg>
