<svg width="33" height="32" viewBox="0 0 33 32" fill="none" xmlns="http://www.w3.org/2000/svg">
<path d="M8.80005 4H4.80005V8" stroke="#B3A4EE" stroke-width="1.5" stroke-linecap="round" stroke-linejoin="round"/>
<path d="M24.8 4H28.8V8" stroke="#B3A4EE" stroke-width="1.5" stroke-linecap="round" stroke-linejoin="round"/>
<path d="M8.80005 28H4.80005V24" stroke="#B3A4EE" stroke-width="1.5" stroke-linecap="round" stroke-linejoin="round"/>
<path d="M10.1334 24V22.6667C10.1334 20.8986 10.8357 19.2029 12.086 17.9526C13.3362 16.7024 15.0319 16 16.8 16C18.5681 16 20.2638 16.7024 21.5141 17.9526C22.7643 19.2029 23.4667 20.8986 23.4667 22.6667V24" stroke="#B3A4EE" stroke-width="1.5" stroke-linecap="round" stroke-linejoin="round"/>
<path d="M16.8 16C17.8609 16 18.8783 15.5786 19.6285 14.8284C20.3786 14.0783 20.8 13.0609 20.8 12C20.8 10.9391 20.3786 9.92172 19.6285 9.17157C18.8783 8.42143 17.8609 8 16.8 8C15.7392 8 14.7218 8.42143 13.9716 9.17157C13.2215 9.92172 12.8 10.9391 12.8 12C12.8 13.0609 13.2215 14.0783 13.9716 14.8284C14.7218 15.5786 15.7392 16 16.8 16V16Z" stroke="#B3A4EE" stroke-width="1.5" stroke-linecap="round" stroke-linejoin="round"/>
<path d="M24.8 28H28.8V24" stroke="#B3A4EE" stroke-width="1.5" stroke-linecap="round" stroke-linejoin="round"/>
</svg>
