<svg width="33" height="32" viewBox="0 0 33 32" fill="none" xmlns="http://www.w3.org/2000/svg">
<g clip-path="url(#clip0)">
<path d="M31.7008 18.2989C31.4887 18.4582 31.2221 18.5267 30.9595 18.4894C30.6969 18.4521 30.4599 18.312 30.3006 18.0999C29.6977 17.2897 28.9131 16.6324 28.0098 16.1808C27.1065 15.7292 26.1099 15.4959 25.1 15.4998C24.8348 15.4998 24.5804 15.3944 24.3929 15.2069C24.2054 15.0194 24.1 14.765 24.1 14.4998C24.1 14.2346 24.2054 13.9802 24.3929 13.7927C24.5804 13.6051 24.8348 13.4998 25.1 13.4998C25.6692 13.4996 26.2265 13.3376 26.7071 13.0325C27.1876 12.7275 27.5714 12.2921 27.8137 11.7771C28.056 11.2621 28.1469 10.6888 28.0756 10.1241C28.0043 9.55941 27.7739 9.02666 27.4112 8.58803C27.0485 8.1494 26.5685 7.823 26.0273 7.64694C25.486 7.47087 24.9059 7.4524 24.3545 7.59368C23.8032 7.73497 23.3034 8.03018 22.9135 8.44485C22.5237 8.85951 22.2598 9.37653 22.1528 9.93553C22.1033 10.1961 21.9523 10.4263 21.733 10.5756C21.5138 10.7248 21.2443 10.7808 20.9837 10.7313C20.7231 10.6818 20.4929 10.5309 20.3437 10.3116C20.1944 10.0924 20.1384 9.82284 20.1879 9.56228C20.3358 8.7841 20.6666 8.0522 21.1528 7.42689C21.6391 6.80158 22.267 6.30075 22.9848 5.96566C23.7025 5.63057 24.4896 5.47081 25.2812 5.49954C26.0728 5.52827 26.8463 5.74467 27.5379 6.13091C28.2295 6.51715 28.8194 7.06218 29.259 7.7211C29.6987 8.38001 29.9755 9.13396 30.0667 9.92083C30.1578 10.7077 30.0607 11.505 29.7834 12.2469C29.506 12.9889 29.0563 13.6544 28.4714 14.1885C29.8314 14.7767 31.0134 15.7112 31.8996 16.8987C31.9785 17.0036 32.036 17.1231 32.0687 17.2503C32.1014 17.3775 32.1087 17.5099 32.0903 17.6399C32.0718 17.77 32.0279 17.8951 31.9611 18.0082C31.8943 18.1212 31.8059 18.22 31.7009 18.2989H31.7008ZM24.6945 26.5615C24.7533 26.6797 24.7882 26.8084 24.7971 26.9401C24.8059 27.0719 24.7886 27.204 24.7461 27.329C24.7036 27.454 24.6368 27.5694 24.5495 27.6684C24.4622 27.7675 24.3561 27.8483 24.2374 27.9061C24.1188 27.9639 23.9898 27.9977 23.858 28.0055C23.7262 28.0132 23.5942 27.9948 23.4695 27.9513C23.3449 27.9077 23.2301 27.8399 23.1318 27.7518C23.0335 27.6637 22.9536 27.5569 22.8968 27.4378C22.322 26.257 21.4268 25.2617 20.3134 24.5653C19.2 23.869 17.9132 23.4997 16.6 23.4997C15.2868 23.4997 14 23.869 12.8866 24.5653C11.7732 25.2617 10.878 26.257 10.3033 27.4378C10.1871 27.6762 9.98091 27.8587 9.73016 27.9451C9.47941 28.0315 9.20461 28.0148 8.96619 27.8986C8.72778 27.7824 8.54529 27.5762 8.45887 27.3255C8.37245 27.0748 8.38918 26.7999 8.50538 26.5615C9.43064 24.6451 11.0079 23.1206 12.9548 22.261C11.9584 21.4989 11.2259 20.4436 10.8604 19.2436C10.4948 18.0436 10.5146 16.7592 10.9169 15.571C11.3193 14.3829 12.0839 13.3506 13.1033 12.6196C14.1227 11.8885 15.3456 11.4953 16.6 11.4953C17.8545 11.4953 19.0774 11.8885 20.0967 12.6196C21.1161 13.3506 21.8808 14.3829 22.2831 15.571C22.6854 16.7592 22.7052 18.0436 22.3396 19.2436C21.9741 20.4436 21.2416 21.4989 20.2453 22.261C22.1921 23.1205 23.7694 24.6451 24.6946 26.5615H24.6945ZM16.6 21.4998C17.3911 21.4998 18.1645 21.2652 18.8223 20.8257C19.4801 20.3861 19.9928 19.7614 20.2955 19.0305C20.5983 18.2996 20.6775 17.4953 20.5231 16.7194C20.3688 15.9435 19.9878 15.2308 19.4284 14.6714C18.869 14.1119 18.1563 13.731 17.3804 13.5766C16.6044 13.4223 15.8002 13.5015 15.0693 13.8043C14.3384 14.107 13.7137 14.6197 13.2741 15.2775C12.8346 15.9353 12.6 16.7087 12.6 17.4998C12.6012 18.5603 13.023 19.577 13.7729 20.3269C14.5228 21.0768 15.5395 21.4986 16.6 21.4998ZM9.10001 14.4998C9.10001 14.2346 8.99465 13.9802 8.80711 13.7927C8.61958 13.6051 8.36522 13.4998 8.10001 13.4998C7.53085 13.4996 6.97349 13.3376 6.49298 13.0325C6.01247 12.7275 5.62865 12.2921 5.38632 11.7771C5.14399 11.2621 5.05316 10.6888 5.12443 10.1241C5.1957 9.55945 5.42613 9.0267 5.78882 8.58807C6.1515 8.14944 6.63148 7.82304 7.17271 7.64696C7.71394 7.47088 8.29409 7.45239 8.84544 7.59366C9.39678 7.73493 9.89656 8.03012 10.2864 8.44477C10.6763 8.85942 10.9402 9.37642 11.0473 9.93541C11.0994 10.1934 11.2511 10.4205 11.4695 10.5673C11.6879 10.7142 11.9555 10.769 12.214 10.7199C12.4726 10.6708 12.7014 10.5217 12.8508 10.305C13.0002 10.0883 13.0581 9.82142 13.012 9.56228C12.8641 8.78406 12.5334 8.05212 12.0471 7.42677C11.5608 6.80141 10.933 6.30055 10.2152 5.96543C9.4974 5.63031 8.71026 5.47053 7.91863 5.49926C7.12699 5.52799 6.35351 5.7444 5.6619 6.13067C4.9703 6.51693 4.38037 7.06199 3.94072 7.72095C3.50107 8.3799 3.22428 9.13389 3.13315 9.92079C3.04202 10.7077 3.13917 11.505 3.41658 12.247C3.69399 12.989 4.14374 13.6544 4.72876 14.1885C3.36864 14.7768 2.18651 15.7113 1.30026 16.8989C1.22138 17.0039 1.16396 17.1234 1.13127 17.2506C1.09858 17.3778 1.09126 17.5102 1.10974 17.6402C1.14704 17.9028 1.28714 18.1398 1.49919 18.2991C1.71125 18.4584 1.9779 18.5269 2.24049 18.4896C2.50307 18.4523 2.74008 18.3122 2.89938 18.1002C3.50222 17.2899 4.28685 16.6325 5.19013 16.1809C6.09341 15.7292 7.09011 15.4959 8.10001 15.4998C8.36522 15.4998 8.61958 15.3944 8.80711 15.2069C8.99465 15.0194 9.10001 14.765 9.10001 14.4998Z" fill="#F199CE"/>
</g>
<defs>
<clipPath id="clip0">
<rect width="32" height="32" fill="white" transform="translate(0.600006)"/>
</clipPath>
</defs>
</svg>
