<svg width="33" height="32" viewBox="0 0 33 32" fill="none" xmlns="http://www.w3.org/2000/svg">
<path d="M12.4 14.6667C13.8145 14.6667 15.171 14.1048 16.1712 13.1046C17.1714 12.1044 17.7333 10.7478 17.7333 9.33333C17.7333 7.91885 17.1714 6.56229 16.1712 5.5621C15.171 4.5619 13.8145 4 12.4 4C10.9855 4 9.62894 4.5619 8.62875 5.5621C7.62855 6.56229 7.06665 7.91885 7.06665 9.33333C7.06665 10.7478 7.62855 12.1044 8.62875 13.1046C9.62894 14.1048 10.9855 14.6667 12.4 14.6667V14.6667Z" stroke="#F199CE" stroke-width="1.5" stroke-linecap="round" stroke-linejoin="round"/>
<path d="M3.06665 24C3.06668 22.2481 3.55976 20.5316 4.4895 19.0468C5.41924 17.562 6.7481 16.3688 8.3241 15.6038C9.90009 14.8387 11.6596 14.5327 13.4014 14.7206C15.1431 14.9086 16.7968 15.583 18.1733 16.6666" stroke="#F199CE" stroke-width="1.5" stroke-linecap="round" stroke-linejoin="round"/>
<path d="M28.8853 22.276L29.28 24.9427C29.3361 25.3217 29.3099 25.7084 29.2031 26.0764C29.0964 26.4444 28.9116 26.785 28.6613 27.0751C28.411 27.3653 28.1012 27.5981 27.7528 27.7577C27.4045 27.9173 27.0258 27.9999 26.6426 28H22.1573C21.7742 27.9999 21.3955 27.9173 21.0472 27.7577C20.6988 27.5981 20.3889 27.3653 20.1387 27.0751C19.8884 26.785 19.7036 26.4444 19.5968 26.0764C19.4901 25.7084 19.4638 25.3217 19.52 24.9427L19.9146 22.276C20.0083 21.6434 20.3262 21.0656 20.8103 20.6478C21.2944 20.23 21.9125 20.0001 22.552 20H26.248C26.8874 20.0001 27.5056 20.23 27.9897 20.6478C28.4738 21.0656 28.7916 21.6434 28.8853 22.276V22.276Z" stroke="#F199CE" stroke-width="1.5" stroke-linecap="round" stroke-linejoin="round"/>
<path d="M23.0667 17.3333H25.7333" stroke="#F199CE" stroke-width="1.5" stroke-linecap="round" stroke-linejoin="round"/>
</svg>
